<svg width="20" height="20" viewBox="0 0 20 20" fill="none" xmlns="http://www.w3.org/2000/svg">
<path fill-rule="evenodd" clip-rule="evenodd" d="M6.38473 6.60055C6.57999 6.40529 6.89657 6.40529 7.09183 6.60055L9.99982 9.50853L12.9078 6.60055C13.1031 6.40529 13.4196 6.40529 13.6149 6.60055C13.8102 6.79581 13.8102 7.11239 13.6149 7.30765L10.7069 10.2156L13.6149 13.1236C13.8102 13.3189 13.8102 13.6355 13.6149 13.8307C13.4196 14.026 13.1031 14.026 12.9078 13.8307L9.99982 10.9227L7.09183 13.8307C6.89657 14.026 6.57999 14.026 6.38473 13.8307C6.18947 13.6355 6.18947 13.3189 6.38473 13.1236L9.29271 10.2156L6.38473 7.30765C6.18947 7.11239 6.18947 6.79581 6.38473 6.60055Z" fill="#AF352B"/>
<circle cx="10" cy="10" r="9.5" stroke="#AF352B"/>
</svg>
